<svg xmlns="http://www.w3.org/2000/svg" version="1.1" xmlns:xlink="http://www.w3.org/1999/xlink" xmlns:svgjs="http://svgjs.dev/svgjs" viewBox="0 0 1920 1080" style="overflow: hidden; height: 85vh;" class="overflow-hidden rounded-md drop-shadow-lg transition duration-300"><rect width="1920" height="1080" fill="#76acff"/><g clip-path="url(&quot;#SvgjsClipPath1480&quot;)"><g transform="matrix(0.692087276624855,-0.918430836554387,0.918430836554387,0.692087276624855,-200.35643729923004,1047.9664737147898)"><path d="M0,-1080C6.8233887767212265,-975.6066445325843,37.718891670140074,-676.3111830455003,40.94033266032736,-453.6398671955054C44.16177365051464,-230.9685513455105,24.612107822727324,37.21056685449565,19.328645941123682,256.0278950999695C14.04518405952004,474.84522334544334,6.364286614253496,643.9660438674157,9.239561370705502,859.2641022773378C12.114836127157508,1074.5621606872598,38.120221374953296,1331.0269292723917,36.580294479835715,1547.816245559502C35.04036758471813,1764.6055618466123,6.096715746639286,2057.969374259917,0,2160L 1920 2160 L 1920 -1080 Z" fill="url(&quot;#SvgjsLinearGradient1468&quot;)"/><path d="M160,-1080C158.81913602252624,-1002.6451419427326,157.49733127188964,-775.8641593826579,152.91481613515742,-615.870851656396C148.3323009984252,-455.87754393013404,139.25928008928813,-268.15348610945443,132.50490917960673,-120.04015364242849C125.75053826992533,28.07317882459742,108.44195409450008,126.73285556199588,112.388590677069,272.80914314575944C116.33522725963793,418.885430729523,148.9754550068754,587.4013732199827,156.18472867502027,756.4175718601527C163.39400234316514,925.4337705003228,152.59967795873638,1127.7701298141267,155.64423268593833,1286.9063349867797C158.6887874131403,1446.0425401594327,173.72609581922177,1565.7191920605337,174.45205703823206,1711.2348028960705C175.17801825724234,1856.7504137316073,162.40867617303869,2085.2058004826786,160,2160L 1920 2160 L 1920 -1080 Z" fill="url(&quot;#SvgjsLinearGradient1469&quot;)"/><path d="M320,-1080C314.1228495249949,-994.6080657675662,283.93617775532755,-720.5955825286163,284.7370971499693,-567.6483946053972C285.5380165446111,-414.70120668217817,315.1960221133638,-298.0017685117244,324.8055163678506,-162.3168724606854C334.4150106223374,-26.631976409646427,345.19884563487466,87.34179221087513,342.39406267689,246.46098170083658C339.5892797189053,405.58017119079807,303.7029287262266,636.7717563329799,307.9768186199426,792.3982644790833C312.2507085136586,948.0247726251868,361.04494624784616,1028.1848189460572,368.03740203918596,1180.220030577457C375.02985783052577,1332.2552422088568,357.9377870411792,1541.312872697058,349.93155336798156,1704.6095342674819C341.9253196947839,1867.9061958379057,324.98859222799695,2084.10158904458,320,2160L 1920 2160 L 1920 -1080 Z" fill="url(&quot;#SvgjsLinearGradient1470&quot;)"/><path d="M480,-1080C472.99249681480745,-942.5073198910969,428.818838519366,-525.5842456854782,437.95498088884483,-255.04391934658142C447.09112325832365,15.4964069923154,533.3184571288838,274.85367401158106,534.816854216873,543.2419580333809C536.3152513048623,811.6302420551808,456.08150578625936,1085.8261111231147,446.94536341678054,1355.2857847842179C437.8092210473017,1624.745458445321,474.49089390279676,2025.880964130703,480,2160L 1920 2160 L 1920 -1080 Z" fill="url(&quot;#SvgjsLinearGradient1471&quot;)"/><path d="M640,-1080C633.2486191882566,-997.7426809857376,610.153220315386,-735.0504359802629,599.4917151295399,-586.4560859144258C588.8302099436938,-437.86173584858864,563.8441506073833,-328.9277150051499,576.0309688849236,-188.43389960497703C588.2177871624639,-47.94008420480418,652.3187314399274,92.37914322839927,672.6126247947814,256.5068064866113C692.9065181496353,420.6344697448234,712.278827766369,633.9334457091517,697.7943290140474,796.3320799442953C683.3098302617259,958.7307141794389,603.6032195696289,1082.8949927460947,585.7056322808523,1230.898611897473C567.8080449920758,1378.9022310488515,581.3597439948637,1529.503563502145,590.4088052813884,1684.3537948525661C599.457866567913,1839.2040262029873,631.7348008802314,2080.7256324754276,640,2160L 1920 2160 L 1920 -1080 Z" fill="url(&quot;#SvgjsLinearGradient1472&quot;)"/><path d="M800,-1080C809.2047251190068,-992.8150090521899,858.488820009965,-711.5413441135062,855.2283507140403,-556.8900543131397C851.9678814181156,-402.2387645127732,788.6734000752891,-290.67055390545545,780.4371842244517,-152.09226119780118C772.2009683736143,-13.51396849014688,808.1374557572451,115.20715848770408,805.811055609016,274.57970193278607C803.4846554607868,433.95224537786805,775.1236743652806,642.3530044543992,766.4787833350766,804.1429994726907C757.8338923048726,965.9329944909822,753.562318939589,1091.8242342964586,753.9417094277921,1245.3196720425349C754.3210999159953,1398.8151097886112,761.0787445022612,1572.6689046229048,768.7551262642959,1725.115625949149C776.4315080263306,1877.5623472753932,794.7925210440493,2087.519270991525,800,2160L 1920 2160 L 1920 -1080 Z" fill="url(&quot;#SvgjsLinearGradient1473&quot;)"/><path d="M960,-1080C966.5094908547873,-992.0554577100519,995.5383268287139,-725.4087957622185,999.0569451287234,-552.3327462603113C1002.575563428733,-379.25669675840413,977.564235795553,-218.60018447063334,981.111709800057,-41.54370298855707C984.659183804561,135.5127784935192,1024.3638336365611,325.1031313819716,1020.3417891557477,510.0061426321463C1016.3197446749344,694.909153882321,957.2698903392521,874.4982712264147,956.9794429151771,1067.8743645124914C956.688995491102,1261.250457798568,1018.0956784304936,1488.2417631006886,1018.5991046112974,1670.2627023486066C1019.1025307921012,1852.2836415965246,969.7665174352162,2078.3771170581012,960,2160L 1920 2160 L 1920 -1080 Z" fill="url(&quot;#SvgjsLinearGradient1474&quot;)"/><path d="M1120,-1080C1110.0782107168225,-974.5169774515623,1057.8797944889982,-661.2020401687294,1060.4692643009341,-447.1018647093737C1063.05873411287,-233.00168925001802,1132.5322052502318,-22.348207390512016,1135.5368188716152,204.60105275613378C1138.5414324929986,431.5503129027796,1082.0765361273775,704.4126834355991,1078.4969460292346,914.5936961705013C1074.9173559310916,1124.7747089054035,1107.1421026209632,1258.1194118606304,1114.0592782827575,1465.6871291655468C1120.9764539445518,1673.2548464704632,1119.009879713793,2044.2811881942578,1120,2160L 1920 2160 L 1920 -1080 Z" fill="url(&quot;#SvgjsLinearGradient1475&quot;)"/><path d="M1280,-1080C1280.071230842252,-1004.3376997599476,1279.767329485276,-778.3833023719627,1280.4273850535114,-626.0261985596853C1281.087440621747,-473.66909474740794,1290.436782097137,-315.0645419122177,1283.9603334094127,-165.8573771263354C1277.4838847216884,-16.650212340453123,1244.122597121368,107.9974506191476,1241.568692927165,269.21679015560835C1239.0147887329622,430.43612969206913,1263.2898806847204,646.5876299794112,1268.6369082441947,801.458660092429C1273.983935803669,956.3296902054468,1266.67055600091,1045.548676812947,1273.6508582840113,1198.442970833715C1280.6311605671126,1351.337264854483,1309.4605316568052,1558.5649193559898,1310.5187219428033,1718.8244242170374C1311.5769122288013,1879.083929078085,1285.086453657134,2086.4707373695064,1280,2160L 1920 2160 L 1920 -1080 Z" fill="url(&quot;#SvgjsLinearGradient1476&quot;)"/><path d="M1440,-1080C1430.760578317878,-978.9036303546222,1380.7464798320375,-683.8135737529175,1384.5634699072687,-473.4217821277335C1388.3804599824998,-263.0299905025495,1446.6584770433994,-45.390464331130005,1462.9019404513874,182.3507497511038C1479.1454038593754,410.09196383333756,1483.183998749367,672.2978092433611,1482.0242503551967,893.0255023656694C1480.8645019610265,1113.7531954879776,1462.9474918122314,1295.5544922125646,1455.9434500863654,1506.7169084849531C1448.9394083604993,1717.8793247573417,1442.657241681061,2051.119484747492,1440,2160L 1920 2160 L 1920 -1080 Z" fill="url(&quot;#SvgjsLinearGradient1477&quot;)"/><path d="M1600,-1080C1593.1877302461942,-1002.2830678451571,1557.74964396055,-775.763000634003,1559.126381477165,-613.6984070709431C1560.5031189937802,-451.63381350788313,1597.9419656041168,-251.88852459852947,1608.26042509969,-107.61243862164031C1618.5788845952634,36.663647355248855,1616.4397742310534,114.05914116443924,1621.0371384506043,251.95810879039186C1625.6345026701551,389.8570764163445,1632.1853464568244,563.8158065010317,1635.8446104169957,719.7813671340754C1639.503874377167,875.746927767119,1642.5275024860505,1024.65155539758,1642.992722211632,1187.7514725886535C1643.4579419372137,1350.851389779727,1645.8013824724244,1536.3394490452924,1638.6359287704856,1698.3808702805168C1631.4704750685469,1860.422291515741,1606.4393214617476,2083.063478380086,1600,2160L 1920 2160 L 1920 -1080 Z" fill="url(&quot;#SvgjsLinearGradient1478&quot;)"/><path d="M1760,-1080C1756.6221612236948,-982.6159289127756,1738.0411335715844,-670.7679790537003,1739.7329673421682,-495.695573476654C1741.424801112752,-320.62316789960767,1766.1195832683532,-197.85837929789713,1770.151002623502,-29.565566537722134C1774.182421978651,138.72724622245286,1769.9948925038393,332.97253684159455,1763.9214834730617,514.0613030843961C1757.848074442284,695.1500693271976,1725.0335728887435,862.3631955927863,1733.710548438837,1056.967030919087C1742.3875239889303,1251.5708662453876,1811.601761513428,1497.845486862048,1815.9833367736219,1681.6843150422C1820.3649120338157,1865.5231432223522,1769.330556128937,2080.2807191737,1760,2160L 1920 2160 L 1920 -1080 Z" fill="url(&quot;#SvgjsLinearGradient1479&quot;)"/></g></g><defs><linearGradient x1="0.1" y1="0" x2="0" y2="1" id="SvgjsLinearGradient1468"><stop stop-color="#76acff" offset="0"/><stop stop-color="#76c3ff" offset="0"/></linearGradient><linearGradient x1="0.1" y1="0" x2="0" y2="1" id="SvgjsLinearGradient1469"><stop stop-color="#5a9bff" offset="0"/><stop stop-color="#5ab6ff" offset="0.08333333333333333"/></linearGradient><linearGradient x1="0.1" y1="0" x2="0" y2="1" id="SvgjsLinearGradient1470"><stop stop-color="#3f8bff" offset="0"/><stop stop-color="#3fabff" offset="0.16666666666666666"/></linearGradient><linearGradient x1="0.1" y1="0" x2="0" y2="1" id="SvgjsLinearGradient1471"><stop stop-color="#237aff" offset="0"/><stop stop-color="#239fff" offset="0.25"/></linearGradient><linearGradient x1="0.1" y1="0" x2="0" y2="1" id="SvgjsLinearGradient1472"><stop stop-color="#0869ff" offset="0"/><stop stop-color="#0892ff" offset="0.3333333333333333"/></linearGradient><linearGradient x1="0.1" y1="0" x2="0" y2="1" id="SvgjsLinearGradient1473"><stop stop-color="#005deb" offset="0"/><stop stop-color="#0084eb" offset="0.4166666666666667"/></linearGradient><linearGradient x1="0.1" y1="0" x2="0" y2="1" id="SvgjsLinearGradient1474"><stop stop-color="#0052d0" offset="0"/><stop stop-color="#0075d0" offset="0.5"/></linearGradient><linearGradient x1="0.1" y1="0" x2="0" y2="1" id="SvgjsLinearGradient1475"><stop stop-color="#0047b4" offset="0"/><stop stop-color="#0065b4" offset="0.5833333333333334"/></linearGradient><linearGradient x1="0.1" y1="0" x2="0" y2="1" id="SvgjsLinearGradient1476"><stop stop-color="#003c99" offset="0"/><stop stop-color="#005699" offset="0.6666666666666666"/></linearGradient><linearGradient x1="0.1" y1="0" x2="0" y2="1" id="SvgjsLinearGradient1477"><stop stop-color="#00317d" offset="0"/><stop stop-color="#00467d" offset="0.75"/></linearGradient><linearGradient x1="0.1" y1="0" x2="0" y2="1" id="SvgjsLinearGradient1478"><stop stop-color="#002661" offset="0"/><stop stop-color="#003661" offset="0.8333333333333334"/></linearGradient><linearGradient x1="0.1" y1="0" x2="0" y2="1" id="SvgjsLinearGradient1479"><stop stop-color="#001c46" offset="0"/><stop stop-color="#002846" offset="0.9166666666666666"/></linearGradient><clipPath id="SvgjsClipPath1480"><rect width="1920" height="1080"/></clipPath></defs></svg>