<svg xmlns="http://www.w3.org/2000/svg" version="1.1" xmlns:xlink="http://www.w3.org/1999/xlink" xmlns:svgjs="http://svgjs.dev/svgjs" viewBox="0 0 1920 1080" style="overflow: hidden; height: 85vh;" class="overflow-hidden rounded-md drop-shadow-lg transition duration-300"><rect width="1920" height="1080" fill="#0a1858"/><g clip-path="url(&quot;#SvgjsClipPath2934&quot;)"><g transform="matrix(0.8937178556755164,0.7237184497073129,-0.7237184497073129,0.8937178556755164,489.47158531065054,-614.4484705444434)"><path d="M0,-1080C-3.2206310713176465,-973.4772553875091,-9.090527824931394,-650.6213474642083,-19.32378642790588,-440.8635323250546C-29.557045030880367,-231.10571718590097,-55.76447522554852,-51.467377934124386,-61.39955161784691,178.54689083492195C-67.0346280101453,408.5611596039683,-59.37826346782202,707.2608170494414,-53.134244781696225,939.2220802892235C-46.890226095570426,1171.1833435290057,-32.79114696470813,1366.8514836551524,-23.935439501092098,1570.3144702736151C-15.079732037476061,1773.777456892078,-3.989239916848683,2061.719078378936,0,2160L 1920 2160 L 1920 -1080 Z" fill="url(&quot;#SvgjsLinearGradient2924&quot;)"/><path d="M192,-1080C190.71714544190348,-1000.0015153862987,192.50226622148512,-757.139834146754,184.30287265142084,-600.0090923177922C176.10347908135657,-442.8783504888305,154.44884070555707,-290.8497418043629,142.80363857961441,-137.21554902622955C131.15843645367175,16.41864375190383,109.29126027639755,161.5430729314169,114.43165989576492,321.796064351008C119.5720595151323,482.0490557705991,149.09948664686664,671.4263527351451,173.64603629581865,824.3023994913169C198.19258594477066,977.1784462474888,271.3731583337893,1095.3665381824615,261.71095778947705,1239.0523448880392C252.04875724516478,1382.738151593617,127.29132599485781,1532.9259638727904,115.67283302994497,1686.4172397247837C104.05434006503212,1839.908515576777,179.27880550499083,2081.0695399541305,192,2160L 1920 2160 L 1920 -1080 Z" fill="url(&quot;#SvgjsLinearGradient2925&quot;)"/><path d="M384,-1080C378.49391058590703,-978.9160775171073,363.94599678210335,-701.8679905935356,350.96346351544213,-473.4964651026438C337.9809302487809,-245.12493961175196,293.1802683829111,78.1716026307576,306.1048004000328,290.22915294535113C319.0293324171545,502.28670325994466,412.55604848195316,590.7746685906332,428.5106556181721,798.8488367849172C444.46526275439106,1006.9230049792013,409.25088582037506,1311.815634908542,401.8324432173464,1538.674162111056C394.41400061431773,1765.5326893135698,386.97207386955773,2056.445693685176,384,2160L 1920 2160 L 1920 -1080 Z" fill="url(&quot;#SvgjsLinearGradient2926&quot;)"/><path d="M576,-1080C579.8749105164303,-982.5238191691664,599.0021331351155,-701.8304127884678,599.2494630985816,-495.14291501499804C599.4967930620477,-288.45541724152827,572.0620116301077,-70.0761877389296,577.4839797807964,160.12498664081843C582.9059479314851,390.3261610205665,620.3614406973372,655.5585863587281,631.7812720027135,886.0641312634903C643.2011033080898,1116.5696761682523,655.2998462801728,1330.8356112799727,646.0029676130539,1543.158256069391C636.706088945935,1755.4809008588093,587.6671612688423,2057.193042678232,576,2160L 1920 2160 L 1920 -1080 Z" fill="url(&quot;#SvgjsLinearGradient2927&quot;)"/><path d="M768,-1080C756.3662401231088,-995.0494188371782,705.776994955196,-727.5498972976185,698.1974407386527,-570.2965130230696C690.6178865221095,-413.04312874852064,712.5088291195755,-275.03130570315307,722.5226747007409,-136.4796943527063C732.5365202819064,2.0719169977404874,759.6646893445255,118.71839032799002,758.2805142256452,261.01315507961107C756.8963391067649,403.3079198312321,708.8250767550452,547.3871910128964,714.2176239874589,717.2888941570199C719.6101712198725,887.1905973011433,793.1634232533597,1118.8449109203793,790.6357976201275,1280.4233739443514C788.1081719868953,1442.0018369683235,702.8245031247537,1540.1635679582441,699.0518701880658,1686.7596723008523C695.2792372513778,1833.3557766434606,756.5086450313443,2081.1266120501423,768,2160L 1920 2160 L 1920 -1080 Z" fill="url(&quot;#SvgjsLinearGradient2928&quot;)"/><path d="M960,-1080C948.3762501383517,-1003.5460783739926,895.6356540984135,-771.0755085455243,890.2575008301101,-621.2764702439556C884.8793475618066,-471.47743194238694,915.1636046105787,-336.9846487151381,927.7310803901793,-181.205770190588C940.2985561697799,-25.426891666037875,950.3739179234876,153.89731921541815,965.6623555077136,313.3968009033451C980.9507930919397,472.896282591272,1019.4764673972041,614.8987804855813,1019.4617058955353,775.7911199369735C1019.4469443938664,936.6834593883657,971.9669612883821,1129.93700339023,965.5737864977006,1278.7508376116987C959.180611707019,1427.5646718331673,982.0316215677296,1521.7992648677355,981.1026571514462,1668.6741252657857C980.1736927351628,1815.548985663836,963.517109525241,2078.1123542109644,960,2160L 1920 2160 L 1920 -1080 Z" fill="url(&quot;#SvgjsLinearGradient2929&quot;)"/><path d="M1152,-1080C1151.7016529115285,-996.2041095595514,1137.887604854067,-769.5318276009751,1150.2099174691716,-577.2246573573082C1162.5322300842763,-384.9174871136412,1238.58147433026,-108.7895571358305,1225.9338756906277,73.84302146200179C1213.2862770509953,256.47560005983405,1099.3487187802334,361.0411918741073,1074.3243256313767,518.5708142296855C1049.29993248252,676.1004365852638,1051.403838643816,837.1800038571128,1075.7875167974876,1019.0207555954711C1100.1711949511591,1200.8615073338294,1207.9243140196545,1419.452117259081,1220.6263945534065,1609.6153246598358C1233.3284750871585,1799.7785320605906,1163.4377324255677,2068.2692207766395,1152,2160L 1920 2160 L 1920 -1080 Z" fill="url(&quot;#SvgjsLinearGradient2930&quot;)"/><path d="M1344,-1080C1341.8333386246368,-956.6601132481618,1334.5073466700926,-613.5592952182822,1331.0000317478202,-339.96067948897064C1327.4927168255479,-66.36206375965912,1312.7488152937403,284.5176628281042,1322.9561104663655,561.5916943758691C1333.1634056389908,838.665725923634,1388.7364878612989,1056.0821255269302,1392.2438027835713,1322.4835097976186C1395.7511177058436,1588.884894068307,1352.0406337972618,2020.4139182996032,1344,2160L 1920 2160 L 1920 -1080 Z" fill="url(&quot;#SvgjsLinearGradient2931&quot;)"/><path d="M1536,-1080C1547.5478681316806,-984.8755267610472,1614.3494153247018,-729.3739225052635,1605.2872087900835,-509.25316056628355C1596.2250022554651,-289.1323986273036,1500.3027347265195,10.06234389874686,1481.6267607922896,240.72457163387952C1462.9507868580597,471.3867993690122,1488.479186275569,657.0161827020371,1493.2313651847037,874.7202058445124C1497.9835440938384,1092.4242289869876,1503.0117284445491,1332.7354114628165,1510.1398342470984,1546.9487104887312C1517.2679400496477,1761.162009514646,1531.6899723745164,2057.824785081455,1536,2160L 1920 2160 L 1920 -1080 Z" fill="url(&quot;#SvgjsLinearGradient2932&quot;)"/><path d="M1728,-1080C1737.9359113092496,-994.9310727228498,1787.9721955253465,-745.1914233067882,1787.6154678554979,-569.5864363370985C1787.2587401856492,-393.9814493674087,1723.172967910518,-210.79391126793553,1725.8596339809083,-26.370078181861366C1728.5463000512984,158.05375490421278,1796.803069070661,357.0848465015555,1803.735464277839,536.9565621793464C1810.6678594850168,716.8282778571373,1790.2080384278652,860.1538356255073,1767.4540052239759,1052.8602158848844C1744.6999720200865,1245.5665961442614,1673.7869325918323,1508.6715463830894,1667.211265054503,1693.1948437356086C1660.6355975171737,1877.7181410881278,1717.8685441757505,2082.1991406226016,1728,2160L 1920 2160 L 1920 -1080 Z" fill="url(&quot;#SvgjsLinearGradient2933&quot;)"/></g></g><defs><linearGradient x1="0.1" y1="0" x2="0" y2="1" id="SvgjsLinearGradient2924"><stop stop-color="#0a1858" offset="0"/><stop stop-color="#0a2558" offset="0"/></linearGradient><linearGradient x1="0.1" y1="0" x2="0" y2="1" id="SvgjsLinearGradient2925"><stop stop-color="#0f2381" offset="0"/><stop stop-color="#0f3681" offset="0.1"/></linearGradient><linearGradient x1="0.1" y1="0" x2="0" y2="1" id="SvgjsLinearGradient2926"><stop stop-color="#132eaa" offset="0"/><stop stop-color="#1347aa" offset="0.2"/></linearGradient><linearGradient x1="0.1" y1="0" x2="0" y2="1" id="SvgjsLinearGradient2927"><stop stop-color="#1839d3" offset="0"/><stop stop-color="#1858d3" offset="0.3"/></linearGradient><linearGradient x1="0.1" y1="0" x2="0" y2="1" id="SvgjsLinearGradient2928"><stop stop-color="#3152e8" offset="0"/><stop stop-color="#3170e8" offset="0.4"/></linearGradient><linearGradient x1="0.1" y1="0" x2="0" y2="1" id="SvgjsLinearGradient2929"><stop stop-color="#5a74ec" offset="0"/><stop stop-color="#5a8cec" offset="0.5"/></linearGradient><linearGradient x1="0.1" y1="0" x2="0" y2="1" id="SvgjsLinearGradient2930"><stop stop-color="#8396f1" offset="0"/><stop stop-color="#83a8f1" offset="0.6"/></linearGradient><linearGradient x1="0.1" y1="0" x2="0" y2="1" id="SvgjsLinearGradient2931"><stop stop-color="#acb9f6" offset="0"/><stop stop-color="#acc5f6" offset="0.7"/></linearGradient><linearGradient x1="0.1" y1="0" x2="0" y2="1" id="SvgjsLinearGradient2932"><stop stop-color="#d4dbfa" offset="0"/><stop stop-color="#d4e1fa" offset="0.8"/></linearGradient><linearGradient x1="0.1" y1="0" x2="0" y2="1" id="SvgjsLinearGradient2933"><stop stop-color="#fdfeff" offset="0"/><stop stop-color="#fdfeff" offset="0.9"/></linearGradient><clipPath id="SvgjsClipPath2934"><rect width="1920" height="1080"/></clipPath></defs></svg>